<svg id="Layer_1" data-name="Layer 1" xmlns="http://www.w3.org/2000/svg" xmlns:xlink="http://www.w3.org/1999/xlink" viewBox="0 0 648 462"><defs><style>.cls-1,.cls-10{fill:none;}.cls-12,.cls-2{fill:#fff;}.cls-3{clip-path:url(#clip-path);}.cls-4,.cls-8{fill:#d9e6f0;}.cls-5{clip-path:url(#clip-path-2);}.cls-6{fill:#aadff9;}.cls-7{clip-path:url(#clip-path-3);}.cls-8{fill-rule:evenodd;}.cls-9{clip-path:url(#clip-path-4);}.cls-10{stroke:#d9e6f0;stroke-linecap:round;stroke-linejoin:round;stroke-width:3px;}.cls-11{fill:#141212;}.cls-12{font-size:18px;font-family:Helvetica;}.cls-13{letter-spacing:-0.05em;}</style><clipPath id="clip-path"><rect class="cls-1" x="217" y="74" width="29" height="36"/></clipPath><clipPath id="clip-path-2"><rect class="cls-1" x="250" y="74" width="28" height="36"/></clipPath><clipPath id="clip-path-3"><rect class="cls-1" x="218" y="114" width="27" height="37"/></clipPath><clipPath id="clip-path-4"><rect class="cls-1" x="251" y="114" width="28" height="33"/></clipPath></defs><rect class="cls-2" x="135" width="223" height="223" rx="32"/><g class="cls-3"><path class="cls-4" d="M226.5,103h7.33a1.81,1.81,0,0,0,1.84-1.83V99.33l3.66,1.93V93.74l-3.66,1.93V93.83a1.76,1.76,0,0,0-.53-1.3,1.79,1.79,0,0,0-1.31-.53H226.5a1.81,1.81,0,0,0-1.83,1.83v7.34a1.74,1.74,0,0,0,.53,1.3A1.76,1.76,0,0,0,226.5,103Zm-5.5,7.33a3.56,3.56,0,0,1-2.59-1.07,3.61,3.61,0,0,1-1.08-2.59V77.33A3.67,3.67,0,0,1,221,73.67h14.67l11,11v22a3.67,3.67,0,0,1-3.67,3.66ZM233.83,86.5V77.33H221v29.34h22V86.5Z"/></g><g class="cls-5"><path class="cls-6" d="M277.16,83.28l-8.25-8.66a3.35,3.35,0,0,0-2.41-1H254.25a3.51,3.51,0,0,0-3.4,3.59l0,28.66a3.51,3.51,0,0,0,3.4,3.59h20.52a3.52,3.52,0,0,0,3.42-3.59v-20A3.67,3.67,0,0,0,277.16,83.28Zm-7.53,10h-3.42v6.47a4.1,4.1,0,0,1-3.9,4.28,3.7,3.7,0,0,1-1.71-.45,4,4,0,0,1-1.34-1.2,4.12,4.12,0,0,1-.69-1.71,4.28,4.28,0,0,1,.1-1.85,3.92,3.92,0,0,1,2.62-2.71,3.76,3.76,0,0,1,3.21.52V91.5a1.75,1.75,0,0,1,1.71-1.79h3.42a1.79,1.79,0,0,1,0,3.58Zm-1.71-7.17a1.75,1.75,0,0,1-1.71-1.79V76.27l9.4,9.85Z"/></g><g class="cls-7"><path class="cls-6" d="M233.29,131.56a2.87,2.87,0,0,1,.79-2,2.61,2.61,0,0,1,3.8,0,2.9,2.9,0,0,1,0,4,2.59,2.59,0,0,1-3.8,0A2.86,2.86,0,0,1,233.29,131.56Zm-3.34,3a1.44,1.44,0,0,0-.49-.49,1.34,1.34,0,0,0-.65-.17,1.37,1.37,0,0,0-.65.17,1.44,1.44,0,0,0-.49.49l-4.48,7.5a1.54,1.54,0,0,0-.2.71,1.46,1.46,0,0,0,.17.71,1.32,1.32,0,0,0,.49.53,1.28,1.28,0,0,0,.68.2h14.34a1.25,1.25,0,0,0,.7-.21,1.32,1.32,0,0,0,.5-.57,1.48,1.48,0,0,0,.14-.75,1.54,1.54,0,0,0-.27-.72l-2.69-3.75a1.27,1.27,0,0,0-.47-.42,1.31,1.31,0,0,0-1.68.42l-1.51,2.11Z"/><path class="cls-8" d="M222.54,114.22a4.8,4.8,0,0,0-3.48,1.51,5.26,5.26,0,0,0-1.44,3.65v26.25a5.25,5.25,0,0,0,1.44,3.64,4.8,4.8,0,0,0,3.48,1.51h17.92a4.79,4.79,0,0,0,3.48-1.51,5.26,5.26,0,0,0,1.45-3.64V124.94a3.41,3.41,0,0,0-.64-2l-5.37-7.44a3.27,3.27,0,0,0-1.1-1,3.14,3.14,0,0,0-1.4-.34Zm-2.24,5.16a2.3,2.3,0,0,1,2.24-2.35h13v8.25a1.37,1.37,0,0,0,1.35,1.4h5.82v18.95a2.29,2.29,0,0,1-2.24,2.34H222.54a2.3,2.3,0,0,1-2.24-2.34Z"/></g><g class="cls-9"><path class="cls-4" d="M278,123.11l-8.53-8.53a1.79,1.79,0,0,0-.59-.39,1.72,1.72,0,0,0-.7-.14H253.53a3.06,3.06,0,0,0-3.05,3v26.82a3.06,3.06,0,0,0,3.05,3h21.94a3.06,3.06,0,0,0,3-3v-19.5A1.87,1.87,0,0,0,278,123.11Zm-8.6-3.43,3.5,3.51h-3.5ZM254.14,143.3V117.7h11.58V125a1.81,1.81,0,0,0,1.83,1.82h7.31V143.3Zm17.06-12.19a1.83,1.83,0,0,1-1.82,1.83h-9.75a1.83,1.83,0,0,1-1.3-3.12,1.81,1.81,0,0,1,1.3-.54h9.75a1.8,1.8,0,0,1,1.29.54A1.83,1.83,0,0,1,271.2,131.11Zm0,6.09a1.86,1.86,0,0,1-.53,1.3,1.83,1.83,0,0,1-1.29.53h-9.75a1.83,1.83,0,1,1,0-3.65h9.75a1.81,1.81,0,0,1,1.82,1.82Z"/></g><rect class="cls-2" x="374" y="71" width="223" height="223" rx="32"/><path class="cls-6" d="M493.67,191.29a8.17,8.17,0,1,1-8.17-8.16A8.17,8.17,0,0,1,493.67,191.29Z"/><path class="cls-6" d="M485.5,205.58a14.29,14.29,0,0,0-14.29,14.3h28.58A14.29,14.29,0,0,0,485.5,205.58Z"/><path class="cls-10" d="M493.67,191.29a8.17,8.17,0,1,1-8.17-8.16A8.17,8.17,0,0,1,493.67,191.29Z"/><path class="cls-10" d="M485.5,205.58a14.29,14.29,0,0,0-14.29,14.3h28.58A14.29,14.29,0,0,0,485.5,205.58Z"/><path class="cls-10" d="M475,146.44a6.57,6.57,0,0,1,5-2.31,6.83,6.83,0,0,1,0,13.66,6.57,6.57,0,0,1-5-2.31m5,19.4H460v-1.71a10,10,0,1,1,20,0Zm0,0h10v-1.71a10.13,10.13,0,0,0-10-10.25,9.79,9.79,0,0,0-5,1.37M476.67,151a6.67,6.67,0,1,1-6.67-6.83A6.76,6.76,0,0,1,476.67,151Z"/><path class="cls-10" d="M531.75,179.2a42.19,42.19,0,0,1-31.5,0M523,166.5V163a3.5,3.5,0,0,0-3.5-3.5h-7A3.5,3.5,0,0,0,509,163v3.5m7,10.5h0m-12.27,14h24.5a3.5,3.5,0,0,0,3.5-3.5V170a3.5,3.5,0,0,0-3.5-3.5h-24.5a3.5,3.5,0,0,0-3.5,3.5v17.5A3.5,3.5,0,0,0,503.75,191Z"/><path class="cls-11" d="M329.5,209h122A18.5,18.5,0,0,1,470,227.5h0A18.5,18.5,0,0,1,451.5,246h-122A18.5,18.5,0,0,1,311,227.5h0A18.5,18.5,0,0,1,329.5,209Z"/><rect class="cls-2" x="80" y="239" width="223" height="223" rx="32"/><path class="cls-6" d="M169.2,362.14l10.18-26.92c.67-1.78,1.92-2.4,3.84-2.4h1.87a3.88,3.88,0,0,1,4.22,2.88l9.51,26.44a11,11,0,0,1,.76,3,3.58,3.58,0,0,1-3.69,3.45c-1.73,0-3-.62-3.55-2.16l-2-5.76H177.65l-2.07,5.76c-.52,1.54-1.63,2.16-3.5,2.16a3.35,3.35,0,0,1-3.65-3.45A10.71,10.71,0,0,1,169.2,362.14Zm19.39-6.91-4.46-13.87H184l-4.65,13.87Zm15.07,9.46V336.75a3.94,3.94,0,0,1,7.88,0v27.94a3.94,3.94,0,0,1-7.88,0Z"/><path class="cls-11" d="M108.5,23h102A18.5,18.5,0,0,1,229,41.5h0A18.5,18.5,0,0,1,210.5,60h-102A18.5,18.5,0,0,1,90,41.5h0A18.5,18.5,0,0,1,108.5,23Z"/><path class="cls-11" d="M516.5,95h113A18.5,18.5,0,0,1,648,113.5h0A18.5,18.5,0,0,1,629.5,132h-113A18.5,18.5,0,0,1,498,113.5h0A18.5,18.5,0,0,1,516.5,95Z"/><path class="cls-11" d="M18.5,391h142A18.5,18.5,0,0,1,179,409.5h0A18.5,18.5,0,0,1,160.5,428H18.5A18.5,18.5,0,0,1,0,409.5H0A18.5,18.5,0,0,1,18.5,391Z"/><text class="cls-12" transform="translate(336.47 232.9)">For Individual</text><text class="cls-12" transform="translate(114 47)">Multimedia</text><text class="cls-12" transform="translate(18.45 414.9)">All<tspan class="cls-13" x="20" y="0"> </tspan><tspan x="24.02" y="0">AI</tspan><tspan class="cls-13" x="41.03" y="0"> </tspan><tspan x="45.04" y="0">Applications</tspan></text><text class="cls-12" transform="translate(521 118.9)">For Business</text></svg>